{
   "accessors" : [
      {
         "bufferView" : 0,
         "byteOffset" : 0,
         "componentType" : 5123,
         "count" : 348,
         "max" : [ 347 ],
         "min" : [ 0 ],
         "name" : "buffer-0-accessor-indices-buffer-0-mesh-0",
         "type" : "SCALAR"
      },
      {
         "bufferView" : 2,
         "byteOffset" : 0,
         "componentType" : 5126,
         "count" : 348,
         "max" : [ 1.606673002243042, 5.363699913024902, 0 ],
         "min" : [ -1.606673002243042, 0, -1.946591019630432 ],
         "name" : "buffer-0-accessor-position-buffer-0-mesh-0",
         "type" : "VEC3"
      },
      {
         "bufferView" : 2,
         "byteOffset" : 4176,
         "componentType" : 5126,
         "count" : 348,
         "max" : [ 1, 0.09719999879598618, 0.9994999766349792 ],
         "min" : [ -0.9998999834060669, -0.2261999994516373, -0.9998000264167786 ],
         "name" : "buffer-0-accessor-normal-buffer-0-mesh-0",
         "type" : "VEC3"
      },
      {
         "bufferView" : 1,
         "byteOffset" : 0,
         "componentType" : 5126,
         "count" : 348,
         "max" : [ 0.05710000172257423, 0 ],
         "min" : [ 0, -0.2368000000715256 ],
         "name" : "buffer-0-accessor-texcoord-buffer-0-mesh-0",
         "type" : "VEC2"
      },
      {
         "bufferView" : 3,
         "byteOffset" : 0,
         "componentType" : 5126,
         "count" : 0,
         "max" : [ 0, 0, 0, 0 ],
         "min" : [ 0, 0, 0, 0 ],
         "name" : "buffer-0-accessor-color-buffer-0-mesh-0",
         "type" : "VEC4"
      },
      {
         "bufferView" : 0,
         "byteOffset" : 696,
         "componentType" : 5123,
         "count" : 738,
         "max" : [ 737 ],
         "min" : [ 0 ],
         "name" : "buffer-0-accessor-indices-buffer-0-mesh-0",
         "type" : "SCALAR"
      },
      {
         "bufferView" : 2,
         "byteOffset" : 8352,
         "componentType" : 5126,
         "count" : 738,
         "max" : [ 3.062047004699707, 12.71789360046387, 0 ],
         "min" : [ -3.062047004699707, 0, -2.182884931564331 ],
         "name" : "buffer-0-accessor-position-buffer-0-mesh-0",
         "type" : "VEC3"
      },
      {
         "bufferView" : 2,
         "byteOffset" : 17208,
         "componentType" : 5126,
         "count" : 738,
         "max" : [ 0.9998000264167786, 0.9193000197410583, 0.9944999814033508 ],
         "min" : [ -0.9998000264167786, -0.9962999820709229, -0.9853000044822693 ],
         "name" : "buffer-0-accessor-normal-buffer-0-mesh-0",
         "type" : "VEC3"
      },
      {
         "bufferView" : 1,
         "byteOffset" : 2784,
         "componentType" : 5126,
         "count" : 738,
         "max" : [ 0.05710000172257423, 0 ],
         "min" : [ 0, -0.2169000059366226 ],
         "name" : "buffer-0-accessor-texcoord-buffer-0-mesh-0",
         "type" : "VEC2"
      },
      {
         "bufferView" : 3,
         "byteOffset" : 0,
         "componentType" : 5126,
         "count" : 0,
         "max" : [ 0, 0, 0, 0 ],
         "min" : [ 0, 0, 0, 0 ],
         "name" : "buffer-0-accessor-color-buffer-0-mesh-0",
         "type" : "VEC4"
      },
      {
         "bufferView" : 0,
         "byteOffset" : 2172,
         "componentType" : 5123,
         "count" : 1224,
         "max" : [ 1223 ],
         "min" : [ 0 ],
         "name" : "buffer-0-accessor-indices-buffer-0-mesh-0",
         "type" : "SCALAR"
      },
      {
         "bufferView" : 2,
         "byteOffset" : 26064,
         "componentType" : 5126,
         "count" : 1224,
         "max" : [ 3.010905981063843, 12.90004730224609, 0.5549989938735962 ],
         "min" : [ -3.010905981063843, 0, -2.026814937591553 ],
         "name" : "buffer-0-accessor-position-buffer-0-mesh-0",
         "type" : "VEC3"
      },
      {
         "bufferView" : 2,
         "byteOffset" : 40752,
         "componentType" : 5126,
         "count" : 1224,
         "max" : [ 0.9975000023841858, 0.9825000166893005, 0.928600013256073 ],
         "min" : [ -0.9975000023841858, -0.9760000109672546, -0.9803000092506409 ],
         "name" : "buffer-0-accessor-normal-buffer-0-mesh-0",
         "type" : "VEC3"
      },
      {
         "bufferView" : 1,
         "byteOffset" : 8688,
         "componentType" : 5126,
         "count" : 1224,
         "max" : [ 0.08240000158548355, 0 ],
         "min" : [ 0, -0.8125 ],
         "name" : "buffer-0-accessor-texcoord-buffer-0-mesh-0",
         "type" : "VEC2"
      },
      {
         "bufferView" : 3,
         "byteOffset" : 0,
         "componentType" : 5126,
         "count" : 0,
         "max" : [ 0, 0, 0, 0 ],
         "min" : [ 0, 0, 0, 0 ],
         "name" : "buffer-0-accessor-color-buffer-0-mesh-0",
         "type" : "VEC4"
      },
      {
         "bufferView" : 0,
         "byteOffset" : 4620,
         "componentType" : 5123,
         "count" : 408,
         "max" : [ 407 ],
         "min" : [ 0 ],
         "name" : "buffer-0-accessor-indices-buffer-0-mesh-0",
         "type" : "SCALAR"
      },
      {
         "bufferView" : 2,
         "byteOffset" : 55440,
         "componentType" : 5126,
         "count" : 408,
         "max" : [ 1.515138983726501, 1.651134967803955, 0 ],
         "min" : [ -1.515138983726501, -0.0557899996638298, -1.704622030258179 ],
         "name" : "buffer-0-accessor-position-buffer-0-mesh-0",
         "type" : "VEC3"
      },
      {
         "bufferView" : 2,
         "byteOffset" : 60336,
         "componentType" : 5126,
         "count" : 408,
         "max" : [ 0.9782999753952026, 0.9998000264167786, 0.9850000143051147 ],
         "min" : [ -0.9783999919891357, -1, -0.9940999746322632 ],
         "name" : "buffer-0-accessor-normal-buffer-0-mesh-0",
         "type" : "VEC3"
      },
      {
         "bufferView" : 1,
         "byteOffset" : 18480,
         "componentType" : 5126,
         "count" : 408,
         "max" : [ 0.05460000038146973, 0 ],
         "min" : [ 0, -0.2368000000715256 ],
         "name" : "buffer-0-accessor-texcoord-buffer-0-mesh-0",
         "type" : "VEC2"
      },
      {
         "bufferView" : 3,
         "byteOffset" : 0,
         "componentType" : 5126,
         "count" : 0,
         "max" : [ 0, 0, 0, 0 ],
         "min" : [ 0, 0, 0, 0 ],
         "name" : "buffer-0-accessor-color-buffer-0-mesh-0",
         "type" : "VEC4"
      },
      {
         "bufferView" : 0,
         "byteOffset" : 5436,
         "componentType" : 5123,
         "count" : 120,
         "max" : [ 119 ],
         "min" : [ 0 ],
         "name" : "buffer-0-accessor-indices-buffer-0-mesh-0",
         "type" : "SCALAR"
      },
      {
         "bufferView" : 2,
         "byteOffset" : 65232,
         "componentType" : 5126,
         "count" : 120,
         "max" : [ 1.640336990356445, 9.88823127746582, 0 ],
         "min" : [ -1.640336990356445, 0, -2.366775035858154 ],
         "name" : "buffer-0-accessor-position-buffer-0-mesh-0",
         "type" : "VEC3"
      },
      {
         "bufferView" : 2,
         "byteOffset" : 66672,
         "componentType" : 5126,
         "count" : 120,
         "max" : [ 0.9998000264167786, 0.8853999972343445, 0.9923999905586243 ],
         "min" : [ -0.9998000264167786, -0.09409999847412109, -0.982200026512146 ],
         "name" : "buffer-0-accessor-normal-buffer-0-mesh-0",
         "type" : "VEC3"
      },
      {
         "bufferView" : 1,
         "byteOffset" : 21744,
         "componentType" : 5126,
         "count" : 120,
         "max" : [ 0.05710000172257423, 0 ],
         "min" : [ 0, -0.2169000059366226 ],
         "name" : "buffer-0-accessor-texcoord-buffer-0-mesh-0",
         "type" : "VEC2"
      },
      {
         "bufferView" : 3,
         "byteOffset" : 0,
         "componentType" : 5126,
         "count" : 0,
         "max" : [ 0, 0, 0, 0 ],
         "min" : [ 0, 0, 0, 0 ],
         "name" : "buffer-0-accessor-color-buffer-0-mesh-0",
         "type" : "VEC4"
      },
      {
         "bufferView" : 0,
         "byteOffset" : 5676,
         "componentType" : 5123,
         "count" : 204,
         "max" : [ 203 ],
         "min" : [ 0 ],
         "name" : "buffer-0-accessor-indices-buffer-0-mesh-0",
         "type" : "SCALAR"
      },
      {
         "bufferView" : 2,
         "byteOffset" : 68112,
         "componentType" : 5126,
         "count" : 204,
         "max" : [ 0.3263779878616333, 9.451801300048828, 0 ],
         "min" : [ -0.3263779878616333, 0, -0.5568199753761292 ],
         "name" : "buffer-0-accessor-position-buffer-0-mesh-0",
         "type" : "VEC3"
      },
      {
         "bufferView" : 2,
         "byteOffset" : 70560,
         "componentType" : 5126,
         "count" : 204,
         "max" : [ 1, 0.9681000113487244, 0.9984999895095825 ],
         "min" : [ -1, -0.9681000113487244, -0.9984999895095825 ],
         "name" : "buffer-0-accessor-normal-buffer-0-mesh-0",
         "type" : "VEC3"
      },
      {
         "bufferView" : 1,
         "byteOffset" : 22704,
         "componentType" : 5126,
         "count" : 204,
         "max" : [ 0, 0 ],
         "min" : [ 0, 0 ],
         "name" : "buffer-0-accessor-texcoord-buffer-0-mesh-0",
         "type" : "VEC2"
      },
      {
         "bufferView" : 3,
         "byteOffset" : 0,
         "componentType" : 5126,
         "count" : 0,
         "max" : [ 0, 0, 0, 0 ],
         "min" : [ 0, 0, 0, 0 ],
         "name" : "buffer-0-accessor-color-buffer-0-mesh-0",
         "type" : "VEC4"
      }
   ],
   "asset" : {
      "extras" : {
         "GOOGLE_processor_version" : 294144208
      },
      "generator" : "Obj2GltfConverter",
      "version" : "2.0"
   },
   "bufferViews" : [
      {
         "buffer" : 0,
         "byteLength" : 6084,
         "byteOffset" : 0,
         "byteStride" : 0,
         "name" : "buffer-0-bufferview-ushort",
         "target" : 34963
      },
      {
         "buffer" : 0,
         "byteLength" : 24336,
         "byteOffset" : 6088,
         "byteStride" : 8,
         "name" : "buffer-0-bufferview-vec2",
         "target" : 34962
      },
      {
         "buffer" : 0,
         "byteLength" : 73008,
         "byteOffset" : 30432,
         "byteStride" : 12,
         "name" : "buffer-0-bufferview-vec3",
         "target" : 34962
      },
      {
         "buffer" : 0,
         "byteLength" : 1,
         "byteOffset" : 0,
         "name" : "buffer-0-bufferview-vec4"
      }
   ],
   "buffers" : [
      {
         "byteLength" : 103440,
         "name" : "buffer-0",
         "uri" : "Teacher_01.bin"
      }
   ],
   "cameras" : [
      {
         "perspective" : {
            "yfov" : 0.7853981633974483,
            "znear" : 0.1000000014901161
         },
         "type" : "perspective"
      }
   ],
   "extensions" : {
      "KHR_lights_punctual" : {
         "lights" : [
            {
               "color" : [ 1, 0.9333333333333333, 0.8666666666666667 ],
               "intensity" : 0.25,
               "name" : "headLight",
               "type" : "directional"
            },
            {
               "color" : [ 1, 0.9333333333333333, 0.8666666666666667 ],
               "intensity" : 0.324999988079071,
               "name" : "keyLight",
               "type" : "directional"
            }
         ]
      }
   },
   "extensionsUsed" : [ "GOOGLE_backgrounds", "GOOGLE_camera_settings", "KHR_lights_punctual" ],
   "extras" : {
      "GOOGLE_initial_camera_motion" : {
         "motionPath" : "FULL_ROTATION"
      },
      "GOOGLE_lighting_rig" : {
         "disableShadows" : false
      }
   },
   "materials" : [
      {
         "alphaMode" : "OPAQUE",
         "doubleSided" : true,
         "name" : "795548",
         "pbrMetallicRoughness" : {
            "baseColorFactor" : [ 0.47451, 0.333333, 0.282353, 1 ],
            "metallicFactor" : 0,
            "roughnessFactor" : 0.7448017359246658
         }
      },
      {
         "alphaMode" : "OPAQUE",
         "doubleSided" : true,
         "name" : "FFFFFF",
         "pbrMetallicRoughness" : {
            "baseColorFactor" : [ 1, 1, 1, 1 ],
            "metallicFactor" : 0,
            "roughnessFactor" : 0.7448017359246658
         }
      },
      {
         "alphaMode" : "OPAQUE",
         "doubleSided" : true,
         "name" : "DD9944",
         "pbrMetallicRoughness" : {
            "baseColorFactor" : [ 0.866667, 0.6, 0.266667, 1 ],
            "metallicFactor" : 0,
            "roughnessFactor" : 0.7448017359246658
         }
      },
      {
         "alphaMode" : "OPAQUE",
         "doubleSided" : true,
         "name" : "1A1A1A",
         "pbrMetallicRoughness" : {
            "baseColorFactor" : [ 0.101961, 0.101961, 0.101961, 1 ],
            "metallicFactor" : 0,
            "roughnessFactor" : 0.7448017359246658
         }
      },
      {
         "alphaMode" : "OPAQUE",
         "doubleSided" : true,
         "name" : "FF5722",
         "pbrMetallicRoughness" : {
            "baseColorFactor" : [ 1, 0.341176, 0.133333, 1 ],
            "metallicFactor" : 0,
            "roughnessFactor" : 0.7448017359246658
         }
      },
      {
         "alphaMode" : "OPAQUE",
         "doubleSided" : true,
         "name" : "00BCD4",
         "pbrMetallicRoughness" : {
            "baseColorFactor" : [ 0, 0.737255, 0.831373, 1 ],
            "metallicFactor" : 0,
            "roughnessFactor" : 0.7448017359246658
         }
      }
   ],
   "meshes" : [
      {
         "name" : "buffer-0-mesh-0",
         "primitives" : [
            {
               "attributes" : {
                  "NORMAL" : 2,
                  "POSITION" : 1,
                  "TEXCOORD_0" : 3
               },
               "indices" : 0,
               "material" : 0,
               "mode" : 4
            },
            {
               "attributes" : {
                  "NORMAL" : 7,
                  "POSITION" : 6,
                  "TEXCOORD_0" : 8
               },
               "indices" : 5,
               "material" : 1,
               "mode" : 4
            },
            {
               "attributes" : {
                  "NORMAL" : 12,
                  "POSITION" : 11,
                  "TEXCOORD_0" : 13
               },
               "indices" : 10,
               "material" : 2,
               "mode" : 4
            },
            {
               "attributes" : {
                  "NORMAL" : 17,
                  "POSITION" : 16,
                  "TEXCOORD_0" : 18
               },
               "indices" : 15,
               "material" : 3,
               "mode" : 4
            },
            {
               "attributes" : {
                  "NORMAL" : 22,
                  "POSITION" : 21,
                  "TEXCOORD_0" : 23
               },
               "indices" : 20,
               "material" : 4,
               "mode" : 4
            },
            {
               "attributes" : {
                  "NORMAL" : 27,
                  "POSITION" : 26,
                  "TEXCOORD_0" : 28
               },
               "indices" : 25,
               "material" : 5,
               "mode" : 4
            }
         ]
      }
   ],
   "nodes" : [
      {
         "mesh" : 0,
         "name" : "node-0"
      },
      {
         "children" : [ 2 ]
      },
      {
         "children" : [ 3 ],
         "extras" : {
            "isTransformNode" : 1
         },
         "translation" : [ -0.03238959325477484, 6.236433269167618, -0.8661351643182869 ]
      },
      {
         "children" : [ 0 ],
         "translation" : [ 0.03238959325477484, -6.236433269167618, 0.8661351643182869 ]
      },
      {
         "camera" : 0,
         "children" : [ 5 ],
         "rotation" : [
            -0.2219240542792784,
            -0.2518950318538158,
            -0.05946428056213499,
            0.9400864887853889
         ],
         "translation" : [ -9.161898896160075, 15.45007473524313, 14.94581634677343 ]
      },
      {
         "extensions" : {
            "KHR_lights_punctual" : {
               "light" : 0
            }
         },
         "extras" : {
            "isHeadLight" : 1
         },
         "name" : "headLightNode",
         "translation" : [ -8.179734425222575, 4.089867212611288, 4.089867212611288 ]
      },
      {
         "extensions" : {
            "KHR_lights_punctual" : {
               "light" : 1
            }
         },
         "extras" : {
            "isKeyLight" : 1
         },
         "name" : "keyLightNode",
         "rotation" : [ -0.7505326882858236, -0.3752663441429118, 0, 0.5439447166468927 ],
         "scale" : [ 0, 0, 8.261531769474802 ],
         "translation" : [ -8.261531769474802, 23.74651544935781, -9.110807883944913 ]
      }
   ],
   "scene" : 0,
   "scenes" : [
      {
         "extensions" : {
            "GOOGLE_backgrounds" : {
               "color" : [ 0.3686274509803922, 0.207843137254902, 0.6941176470588235 ]
            },
            "GOOGLE_camera_settings" : {}
         },
         "extras" : {
            "GOOGLE_camera_index" : {
               "cameraIndex" : 0,
               "nodeIndex" : 4
            },
            "GOOGLE_geometry_data" : {
               "stats" : {
                  "centroid" : [ 0, 7.223451910408203, -0.8492761144701105 ],
                  "radius" : 8.179734425222575,
                  "stdev" : 4.235793393080178
               },
               "visualCenterPoint" : [ -0.03238959325477484, 6.236433269167618, -0.8661351643182869 ]
            },
            "GOOGLE_hemi_light" : {
               "groundColor" : [ 0.3686274509803922, 0.207843137254902, 0.6941176470588235 ]
            }
         },
         "name" : "scene-0",
         "nodes" : [ 1, 4, 6 ]
      }
   ]
}
