{
  "accessors": [
    {
      "bufferView": 1,
      "componentType": 5126,
      "count": 36471,
      "max": [
        0.67339271306991577,
        0.32212799787521362,
        0.47644788026809692
      ],
      "min": [
        -0.70602840185165405,
        -0.50523704290390015,
        -0.29621320962905884
      ],
      "type": "VEC3"
    },
    {
      "bufferView": 1,
      "byteOffset": 437652,
      "componentType": 5126,
      "count": 36471,
      "max": [
        0.99952363967895508,
        0.99996733665466309,
        0.99991071224212646
      ],
      "min": [
        -0.9994962215423584,
        -0.99996888637542725,
        -0.99986183643341064
      ],
      "type": "VEC3"
    },
    {
      "bufferView": 0,
      "componentType": 5125,
      "count": 188544,
      "max": [
        36470
      ],
      "min": [
        0
      ],
      "type": "SCALAR"
    },
    {
      "bufferView": 1,
      "byteOffset": 875304,
      "componentType": 5126,
      "count": 39625,
      "max": [
        0.67358255386352539,
        0.32619941234588623,
        0.48153838515281677
      ],
      "min": [
        -0.70628708600997925,
        -0.50998044013977051,
        -0.30172759294509888
      ],
      "type": "VEC3"
    },
    {
      "bufferView": 1,
      "byteOffset": 1350804,
      "componentType": 5126,
      "count": 39625,
      "max": [
        0.99996328353881836,
        0.99996733665466309,
        0.99996185302734375
      ],
      "min": [
        -0.99936127662658691,
        -0.99986875057220459,
        -0.99996984004974365
      ],
      "type": "VEC3"
    },
    {
      "bufferView": 0,
      "byteOffset": 754176,
      "componentType": 5125,
      "count": 213216,
      "max": [
        39624
      ],
      "min": [
        0
      ],
      "type": "SCALAR"
    },
    {
      "bufferView": 1,
      "byteOffset": 1826304,
      "componentType": 5126,
      "count": 12960,
      "max": [
        0.59484952688217163,
        0.29849985241889954,
        0.45489230751991272
      ],
      "min": [
        -0.64308476448059082,
        -0.48546728491783142,
        -0.27452591061592102
      ],
      "type": "VEC3"
    },
    {
      "bufferView": 1,
      "byteOffset": 1981824,
      "componentType": 5126,
      "count": 12960,
      "max": [
        0.99934065341949463,
        0.99566900730133057,
        0.99373525381088257
      ],
      "min": [
        -0.99934065341949463,
        -0.99566733837127686,
        -0.99373525381088257
      ],
      "type": "VEC3"
    },
    {
      "bufferView": 0,
      "byteOffset": 1607040,
      "componentType": 5125,
      "count": 38880,
      "max": [
        12959
      ],
      "min": [
        0
      ],
      "type": "SCALAR"
    },
    {
      "bufferView": 1,
      "byteOffset": 2137344,
      "componentType": 5126,
      "count": 47725,
      "max": [
        0.5630490779876709,
        0.2444307953119278,
        0.35962980985641479
      ],
      "min": [
        -0.55954092741012573,
        -0.18899089097976685,
        -0.36855390667915344
      ],
      "type": "VEC3"
    },
    {
      "bufferView": 1,
      "byteOffset": 2710044,
      "componentType": 5126,
      "count": 47725,
      "max": [
        0.99984443187713623,
        0.99999415874481201,
        0.99990189075469971
      ],
      "min": [
        -0.99993157386779785,
        -0.99997997283935547,
        -0.99998629093170166
      ],
      "type": "VEC3"
    },
    {
      "bufferView": 0,
      "byteOffset": 1762560,
      "componentType": 5125,
      "count": 250560,
      "max": [
        47724
      ],
      "min": [
        0
      ],
      "type": "SCALAR"
    },
    {
      "bufferView": 1,
      "byteOffset": 3282744,
      "componentType": 5126,
      "count": 28299,
      "max": [
        0.56662356853485107,
        0.2434142678976059,
        0.36320516467094421
      ],
      "min": [
        -0.56014049053192139,
        -0.19100785255432129,
        -0.3687281608581543
      ],
      "type": "VEC3"
    },
    {
      "bufferView": 1,
      "byteOffset": 3622332,
      "componentType": 5126,
      "count": 28299,
      "max": [
        0.99984443187713623,
        0.99999654293060303,
        0.99877679347991943
      ],
      "min": [
        -0.99985885620117188,
        -0.99984002113342285,
        -0.99994015693664551
      ],
      "type": "VEC3"
    },
    {
      "bufferView": 0,
      "byteOffset": 2764800,
      "componentType": 5125,
      "count": 146880,
      "max": [
        28298
      ],
      "min": [
        0
      ],
      "type": "SCALAR"
    },
    {
      "bufferView": 1,
      "byteOffset": 3961920,
      "componentType": 5126,
      "count": 17448,
      "max": [
        0.52003961801528931,
        0.24806824326515198,
        0.31698185205459595
      ],
      "min": [
        -0.55492126941680908,
        -0.11897774040699005,
        -0.3718528151512146
      ],
      "type": "VEC3"
    },
    {
      "bufferView": 1,
      "byteOffset": 4171296,
      "componentType": 5126,
      "count": 17448,
      "max": [
        0.9850151538848877,
        0.99997353553771973,
        0.99965083599090576
      ],
      "min": [
        -0.99767541885375977,
        -0.99846827983856201,
        -0.99965226650238037
      ],
      "type": "VEC3"
    },
    {
      "bufferView": 0,
      "byteOffset": 3352320,
      "componentType": 5125,
      "count": 51840,
      "max": [
        17447
      ],
      "min": [
        0
      ],
      "type": "SCALAR"
    },
    {
      "bufferView": 1,
      "byteOffset": 4380672,
      "componentType": 5126,
      "count": 37900,
      "max": [
        0.59142929315567017,
        0.24047473073005676,
        0.2385823130607605
      ],
      "min": [
        -0.53693211078643799,
        -0.300262451171875,
        -0.34679567813873291
      ],
      "type": "VEC3"
    },
    {
      "bufferView": 1,
      "byteOffset": 4835472,
      "componentType": 5126,
      "count": 37900,
      "max": [
        0.99991142749786377,
        0.99991059303283691,
        0.99992561340332031
      ],
      "min": [
        -0.99993884563446045,
        -0.9998704195022583,
        -0.99988937377929688
      ],
      "type": "VEC3"
    },
    {
      "bufferView": 0,
      "byteOffset": 3559680,
      "componentType": 5125,
      "count": 194112,
      "max": [
        37899
      ],
      "min": [
        0
      ],
      "type": "SCALAR"
    },
    {
      "bufferView": 1,
      "byteOffset": 5290272,
      "componentType": 5126,
      "count": 35261,
      "max": [
        0.5933414101600647,
        0.24056139588356018,
        0.23921801149845123
      ],
      "min": [
        -0.52395808696746826,
        -0.27811211347579956,
        -0.34895214438438416
      ],
      "type": "VEC3"
    },
    {
      "bufferView": 1,
      "byteOffset": 5713404,
      "componentType": 5126,
      "count": 35261,
      "max": [
        0.99991142749786377,
        0.99994349479675293,
        0.99998736381530762
      ],
      "min": [
        -0.99979889392852783,
        -0.99999082088470459,
        -0.9999847412109375
      ],
      "type": "VEC3"
    },
    {
      "bufferView": 0,
      "byteOffset": 4336128,
      "componentType": 5125,
      "count": 199008,
      "max": [
        35260
      ],
      "min": [
        0
      ],
      "type": "SCALAR"
    },
    {
      "bufferView": 1,
      "byteOffset": 6136536,
      "componentType": 5126,
      "count": 21600,
      "max": [
        0.59316104650497437,
        0.23692956566810608,
        0.24230813980102539
      ],
      "min": [
        -0.5365910530090332,
        -0.3030095100402832,
        -0.34491631388664246
      ],
      "type": "VEC3"
    },
    {
      "bufferView": 1,
      "byteOffset": 6395736,
      "componentType": 5126,
      "count": 21600,
      "max": [
        0.9997175931930542,
        0.99991846084594727,
        0.99997103214263916
      ],
      "min": [
        -0.99968969821929932,
        -0.99991822242736816,
        -0.99993777275085449
      ],
      "type": "VEC3"
    },
    {
      "bufferView": 0,
      "byteOffset": 5132160,
      "componentType": 5125,
      "count": 64800,
      "max": [
        21599
      ],
      "min": [
        0
      ],
      "type": "SCALAR"
    }
  ],
  "asset": {
    "extras": {
      "author": "Loïc Norgeot (https://sketchfab.com/norgeotloic)",
      "license": "CC-BY-4.0 (http://creativecommons.org/licenses/by/4.0/)",
      "source": "https://sketchfab.com/3d-models/test-blob-4-3cac76bc1d974ebaa1603e11b07ebfc4",
      "title": "Test - Blob 4"
    },
    "generator": "Sketchfab-6.29.0",
    "version": "2.0"
  },
  "bufferViews": [
    {
      "buffer": 0,
      "byteLength": 5391360,
      "byteOffset": 0,
      "name": "floatBufferViews",
      "target": 34963
    },
    {
      "buffer": 0,
      "byteLength": 6654936,
      "byteOffset": 5391360,
      "byteStride": 12,
      "name": "floatBufferViews",
      "target": 34962
    }
  ],
  "buffers": [
    {
      "byteLength": 12046296,
      "uri": "scene.bin"
    }
  ],
  "materials": [
    {
      "doubleSided": true,
      "emissiveFactor": [
        0,
        0,
        0
      ],
      "name": "Basis",
      "pbrMetallicRoughness": {
        "baseColorFactor": [
          1,
          1,
          1,
          1
        ],
        "metallicFactor": 0,
        "roughnessFactor": 0.34123623009883997
      }
    },
    {
      "doubleSided": true,
      "emissiveFactor": [
        0,
        0,
        0
      ],
      "name": "Metal",
      "pbrMetallicRoughness": {
        "baseColorFactor": [
          0.1596150314,
          0.6992610054999997,
          0.84780756939999968,
          1
        ],
        "metallicFactor": 1,
        "roughnessFactor": 0.45032713918974904
      }
    },
    {
      "doubleSided": true,
      "emissiveFactor": [
        0.0049003100000000188,
        0.90982171100255949,
        1
      ],
      "name": "Emit_blue",
      "pbrMetallicRoughness": {
        "baseColorFactor": [
          0.80000000000000004,
          0.80000000000000004,
          0.80000000000000004,
          1
        ],
        "metallicFactor": 0,
        "roughnessFactor": 0.5
      }
    },
    {
      "doubleSided": true,
      "emissiveFactor": [
        0.0049003100000000188,
        1,
        1
      ],
      "name": "Emit",
      "pbrMetallicRoughness": {
        "baseColorFactor": [
          0.80000000000000004,
          0.80000000000000004,
          0.80000000000000004,
          1
        ],
        "metallicFactor": 1,
        "roughnessFactor": 0.5
      }
    },
    {
      "doubleSided": true,
      "emissiveFactor": [
        1,
        0,
        1
      ],
      "name": "Emit_red",
      "pbrMetallicRoughness": {
        "baseColorFactor": [
          0.80000000000000004,
          0.80000000000000004,
          0.80000000000000004,
          1
        ],
        "metallicFactor": 0,
        "roughnessFactor": 0.5
      }
    }
  ],
  "meshes": [
    {
      "primitives": [
        {
          "attributes": {
            "NORMAL": 1,
            "POSITION": 0
          },
          "indices": 2,
          "material": 0,
          "mode": 4
        }
      ]
    },
    {
      "primitives": [
        {
          "attributes": {
            "NORMAL": 4,
            "POSITION": 3
          },
          "indices": 5,
          "material": 1,
          "mode": 4
        }
      ]
    },
    {
      "primitives": [
        {
          "attributes": {
            "NORMAL": 7,
            "POSITION": 6
          },
          "indices": 8,
          "material": 2,
          "mode": 4
        }
      ]
    },
    {
      "primitives": [
        {
          "attributes": {
            "NORMAL": 10,
            "POSITION": 9
          },
          "indices": 11,
          "material": 0,
          "mode": 4
        }
      ]
    },
    {
      "primitives": [
        {
          "attributes": {
            "NORMAL": 13,
            "POSITION": 12
          },
          "indices": 14,
          "material": 1,
          "mode": 4
        }
      ]
    },
    {
      "primitives": [
        {
          "attributes": {
            "NORMAL": 16,
            "POSITION": 15
          },
          "indices": 17,
          "material": 3,
          "mode": 4
        }
      ]
    },
    {
      "primitives": [
        {
          "attributes": {
            "NORMAL": 19,
            "POSITION": 18
          },
          "indices": 20,
          "material": 0,
          "mode": 4
        }
      ]
    },
    {
      "primitives": [
        {
          "attributes": {
            "NORMAL": 22,
            "POSITION": 21
          },
          "indices": 23,
          "material": 1,
          "mode": 4
        }
      ]
    },
    {
      "primitives": [
        {
          "attributes": {
            "NORMAL": 25,
            "POSITION": 24
          },
          "indices": 26,
          "material": 4,
          "mode": 4
        }
      ]
    }
  ],
  "nodes": [
    {
      "children": [
        1
      ],
      "name": "RootNode (gltf orientation matrix)",
      "rotation": [
        -0.70710678118654746,
        -0,
        -0,
        0.70710678118654757
      ]
    },
    {
      "children": [
        2
      ],
      "matrix": [
        0.94072085618972778,
        -0.21012918651103973,
        0.2662518322467804,
        0,
        0.0083351107314229012,
        0.79906719923019409,
        0.60118395090103149,
        0,
        -0.33907938003540039,
        -0.56332701444625854,
        0.75345063209533691,
        0,
        0.052101206034421921,
        -0.36596575379371643,
        0.23780480027198792,
        1
      ],
      "name": "RootNode (model correction matrix)"
    },
    {
      "children": [
        3
      ],
      "name": "root"
    },
    {
      "children": [
        4,
        8,
        12
      ],
      "matrix": [
        1,
        0,
        0,
        0,
        0,
        2.2204460492503131e-16,
        1,
        0,
        0,
        -1,
        2.2204460492503131e-16,
        0,
        0,
        0,
        0,
        1
      ],
      "name": "GLTF_SceneRootNode"
    },
    {
      "children": [
        5,
        6,
        7
      ],
      "matrix": [
        1,
        0,
        0,
        0,
        0,
        1,
        0,
        0,
        0,
        0,
        1,
        0,
        -1.3307414054870605,
        -0.0053275721147656441,
        0.41468983888626099,
        1
      ],
      "name": "Path_0"
    },
    {
      "mesh": 0,
      "name": ""
    },
    {
      "mesh": 1,
      "name": ""
    },
    {
      "mesh": 2,
      "name": ""
    },
    {
      "children": [
        9,
        10,
        11
      ],
      "matrix": [
        0.53966675732038127,
        -0.84119160701593076,
        0.034006930606284458,
        0,
        0.68857148749425134,
        0.4642737073793014,
        0.55706304063923773,
        0,
        -0.48438527811367138,
        -0.27721220197212615,
        0.82977364228113826,
        0,
        -1.2191418409347534,
        -0.1871771365404129,
        0.37817245721817017,
        1
      ],
      "name": "Path.001_1"
    },
    {
      "mesh": 3,
      "name": ""
    },
    {
      "mesh": 4,
      "name": ""
    },
    {
      "mesh": 5,
      "name": ""
    },
    {
      "children": [
        13,
        14,
        15
      ],
      "matrix": [
        -0.035059299541626343,
        -0.71429052395868131,
        -0.69897059516011328,
        0,
        0.98482750875476033,
        -0.14363455938737202,
        0.097385272754600904,
        0,
        -0.16995771096229506,
        -0.68495121047591989,
        0.708488684279452,
        0,
        -1.3054796457290649,
        0.047925796359777451,
        0.74329549074172974,
        1
      ],
      "name": "Path.002_2"
    },
    {
      "mesh": 6,
      "name": ""
    },
    {
      "mesh": 7,
      "name": ""
    },
    {
      "mesh": 8,
      "name": ""
    }
  ],
  "scene": 0,
  "scenes": [
    {
      "name": "OSG_Scene",
      "nodes": [
        0
      ]
    }
  ]
}

