{
  "accessors": [
    {
      "bufferView": 2,
      "componentType": 5126,
      "count": 65532,
      "max": [
        363.16131591796875,
        341.879638671875,
        1147.3829345703125
      ],
      "min": [
        95.116943359375,
        70.494522094726562,
        749.2469482421875
      ],
      "type": "VEC3"
    },
    {
      "bufferView": 2,
      "byteOffset": 786384,
      "componentType": 5126,
      "count": 65532,
      "max": [
        0.9999772310256958,
        0.99993526935577393,
        0.99994534254074097
      ],
      "min": [
        -0.99997615814208984,
        -0.99999171495437622,
        -0.99990874528884888
      ],
      "type": "VEC3"
    },
    {
      "bufferView": 3,
      "componentType": 5126,
      "count": 65532,
      "max": [
        0.99997037649154663,
        0.9999048113822937,
        0.99999767541885376,
        1
      ],
      "min": [
        -0.99985575675964355,
        -0.99894416332244873,
        -0.99999427795410156,
        -1
      ],
      "type": "VEC4"
    },
    {
      "bufferView": 1,
      "componentType": 5126,
      "count": 65532,
      "max": [
        0.97140997648239136,
        0.48155000805854797
      ],
      "min": [
        0.60817998647689819,
        0.041570000350475311
      ],
      "type": "VEC2"
    },
    {
      "bufferView": 0,
      "componentType": 5125,
      "count": 344109,
      "max": [
        65531
      ],
      "min": [
        0
      ],
      "type": "SCALAR"
    },
    {
      "bufferView": 2,
      "byteOffset": 1572768,
      "componentType": 5126,
      "count": 36620,
      "max": [
        361.23025512695312,
        340.00094604492188,
        1146.1826171875
      ],
      "min": [
        95.0281982421875,
        70.494522094726562,
        750.51953125
      ],
      "type": "VEC3"
    },
    {
      "bufferView": 2,
      "byteOffset": 2012208,
      "componentType": 5126,
      "count": 36620,
      "max": [
        0.99996697902679443,
        0.99997919797897339,
        0.99996232986450195
      ],
      "min": [
        -0.99995201826095581,
        -0.99999505281448364,
        -0.99990874528884888
      ],
      "type": "VEC3"
    },
    {
      "bufferView": 3,
      "byteOffset": 1048512,
      "componentType": 5126,
      "count": 36620,
      "max": [
        0.99997568130493164,
        0.99976485967636108,
        0.99983805418014526,
        1
      ],
      "min": [
        -0.99975240230560303,
        -0.99939554929733276,
        -0.99999839067459106,
        1
      ],
      "type": "VEC4"
    },
    {
      "bufferView": 1,
      "byteOffset": 524256,
      "componentType": 5126,
      "count": 36620,
      "max": [
        0.99804002046585083,
        0.49682000279426575
      ],
      "min": [
        0.61355000734329224,
        0.036699999123811722
      ],
      "type": "VEC2"
    },
    {
      "bufferView": 0,
      "byteOffset": 1376436,
      "componentType": 5125,
      "count": 159891,
      "max": [
        36619
      ],
      "min": [
        0
      ],
      "type": "SCALAR"
    },
    {
      "bufferView": 2,
      "byteOffset": 2451648,
      "componentType": 5126,
      "count": 65532,
      "max": [
        262.3310546875,
        358.85284423828125,
        866.62774658203125
      ],
      "min": [
        0,
        113.66585540771484,
        379.7449951171875
      ],
      "type": "VEC3"
    },
    {
      "bufferView": 2,
      "byteOffset": 3238032,
      "componentType": 5126,
      "count": 65532,
      "max": [
        0.99983787536621094,
        0.99999368190765381,
        0.99991297721862793
      ],
      "min": [
        -0.99999117851257324,
        -0.99999511241912842,
        -0.99999994039535522
      ],
      "type": "VEC3"
    },
    {
      "bufferView": 3,
      "byteOffset": 1634432,
      "componentType": 5126,
      "count": 65532,
      "max": [
        0.99999946355819702,
        0.99982506036758423,
        0.98686200380325317,
        1
      ],
      "min": [
        -0.99999505281448364,
        -0.99975019693374634,
        -0.99999517202377319,
        1
      ],
      "type": "VEC4"
    },
    {
      "bufferView": 1,
      "byteOffset": 817216,
      "componentType": 5126,
      "count": 65532,
      "max": [
        0.89155000448226929,
        0.8977699875831604
      ],
      "min": [
        0.19097000360488892,
        0.3866100013256073
      ],
      "type": "VEC2"
    },
    {
      "bufferView": 0,
      "byteOffset": 2016000,
      "componentType": 5125,
      "count": 381759,
      "max": [
        65531
      ],
      "min": [
        0
      ],
      "type": "SCALAR"
    },
    {
      "bufferView": 2,
      "byteOffset": 4024416,
      "componentType": 5126,
      "count": 2824,
      "max": [
        259.2698974609375,
        358.88961791992188,
        842.5257568359375
      ],
      "min": [
        0.908599853515625,
        114.34375,
        379.90097045898438
      ],
      "type": "VEC3"
    },
    {
      "bufferView": 2,
      "byteOffset": 4058304,
      "componentType": 5126,
      "count": 2824,
      "max": [
        0.99263978004455566,
        0.99984610080718994,
        0.99997192621231079
      ],
      "min": [
        -0.99973863363265991,
        -0.99235725402832031,
        -0.99998694658279419
      ],
      "type": "VEC3"
    },
    {
      "bufferView": 3,
      "byteOffset": 2682944,
      "componentType": 5126,
      "count": 2824,
      "max": [
        0.97156345844268799,
        0.80715751647949219,
        0.9780241847038269,
        1
      ],
      "min": [
        -0.9987109899520874,
        -0.99111980199813843,
        -0.99959373474121094,
        1
      ],
      "type": "VEC4"
    },
    {
      "bufferView": 1,
      "byteOffset": 1341472,
      "componentType": 5126,
      "count": 2824,
      "max": [
        0.87625998258590698,
        0.88593000173568726
      ],
      "min": [
        0.30044999718666077,
        0.34145998954772949
      ],
      "type": "VEC2"
    },
    {
      "bufferView": 0,
      "byteOffset": 3543036,
      "componentType": 5125,
      "count": 11937,
      "max": [
        2823
      ],
      "min": [
        0
      ],
      "type": "SCALAR"
    },
    {
      "bufferView": 2,
      "byteOffset": 4092192,
      "componentType": 5126,
      "count": 65532,
      "max": [
        532.57684326171875,
        358.89678955078125,
        858.46673583984375
      ],
      "min": [
        227.80435180664062,
        100.62062835693359,
        379.80960083007812
      ],
      "type": "VEC3"
    },
    {
      "bufferView": 2,
      "byteOffset": 4878576,
      "componentType": 5126,
      "count": 65532,
      "max": [
        0.99999380111694336,
        0.99997991323471069,
        0.99997222423553467
      ],
      "min": [
        -0.99999278783798218,
        -0.99999457597732544,
        -0.99999946355819702
      ],
      "type": "VEC3"
    },
    {
      "bufferView": 3,
      "byteOffset": 2728128,
      "componentType": 5126,
      "count": 65532,
      "max": [
        0.99998646974563599,
        0.99992251396179199,
        0.99882763624191284,
        1
      ],
      "min": [
        -0.99994516372680664,
        -0.999980628490448,
        -0.99997931718826294,
        -1
      ],
      "type": "VEC4"
    },
    {
      "bufferView": 1,
      "byteOffset": 1364064,
      "componentType": 5126,
      "count": 65532,
      "max": [
        0.62964999675750732,
        0.53279000520706177
      ],
      "min": [
        0.0019499999471008778,
        0.0019499999471008778
      ],
      "type": "VEC2"
    },
    {
      "bufferView": 0,
      "byteOffset": 3590784,
      "componentType": 5125,
      "count": 344073,
      "max": [
        65531
      ],
      "min": [
        0
      ],
      "type": "SCALAR"
    },
    {
      "bufferView": 2,
      "byteOffset": 5664960,
      "componentType": 5126,
      "count": 47120,
      "max": [
        532.57684326171875,
        359.37286376953125,
        834.86785888671875
      ],
      "min": [
        230.17347717285156,
        100.54873657226562,
        379.9400634765625
      ],
      "type": "VEC3"
    },
    {
      "bufferView": 2,
      "byteOffset": 6230400,
      "componentType": 5126,
      "count": 47120,
      "max": [
        0.99998897314071655,
        0.99997991323471069,
        0.99997222423553467
      ],
      "min": [
        -0.99996042251586914,
        -0.99998188018798828,
        -0.99999946355819702
      ],
      "type": "VEC3"
    },
    {
      "bufferView": 3,
      "byteOffset": 3776640,
      "componentType": 5126,
      "count": 47120,
      "max": [
        0.99987983703613281,
        0.98861163854598999,
        0.96908307075500488,
        1
      ],
      "min": [
        -0.99999815225601196,
        -0.99997037649154663,
        -0.99999511241912842,
        1
      ],
      "type": "VEC4"
    },
    {
      "bufferView": 1,
      "byteOffset": 1888320,
      "componentType": 5126,
      "count": 47120,
      "max": [
        0.61145001649856567,
        0.53279000520706177
      ],
      "min": [
        0.025739999487996101,
        0.057080000638961792
      ],
      "type": "VEC2"
    },
    {
      "bufferView": 0,
      "byteOffset": 4967076,
      "componentType": 5125,
      "count": 227991,
      "max": [
        47119
      ],
      "min": [
        0
      ],
      "type": "SCALAR"
    },
    {
      "bufferView": 2,
      "byteOffset": 6795840,
      "componentType": 5126,
      "count": 652,
      "max": [
        440.959228515625,
        383.749267578125,
        383.74932861328125
      ],
      "min": [
        57.2099609375,
        0,
        0
      ],
      "type": "VEC3"
    },
    {
      "bufferView": 2,
      "byteOffset": 6803664,
      "componentType": 5126,
      "count": 652,
      "max": [
        1,
        1,
        1
      ],
      "min": [
        -1,
        -1,
        -1
      ],
      "type": "VEC3"
    },
    {
      "bufferView": 1,
      "byteOffset": 2265280,
      "componentType": 5126,
      "count": 652,
      "max": [
        1,
        1
      ],
      "min": [
        0,
        0
      ],
      "type": "VEC2"
    },
    {
      "bufferView": 0,
      "byteOffset": 5879040,
      "componentType": 5125,
      "count": 2880,
      "max": [
        651
      ],
      "min": [
        0
      ],
      "type": "SCALAR"
    }
  ],
  "asset": {
    "extras": {
      "author": "Musée Saint-Raymond (https://sketchfab.com/museesaintraymond)",
      "license": "CC0-1.0 (http://creativecommons.org/publicdomain/zero/1.0/)",
      "source": "https://sketchfab.com/3d-models/buste-cuirasse-de-marc-aurele-age-a7e0a77f81f74c80b15ba64164e14c03",
      "title": "Buste cuirassé de Marc Aurèle âgé"
    },
    "generator": "Sketchfab-7.80.0",
    "version": "2.0"
  },
  "bufferViews": [
    {
      "buffer": 0,
      "byteLength": 5890560,
      "byteOffset": 0,
      "name": "floatBufferViews",
      "target": 34963
    },
    {
      "buffer": 0,
      "byteLength": 2270496,
      "byteOffset": 5890560,
      "byteStride": 8,
      "name": "floatBufferViews",
      "target": 34962
    },
    {
      "buffer": 0,
      "byteLength": 6811488,
      "byteOffset": 8161056,
      "byteStride": 12,
      "name": "floatBufferViews",
      "target": 34962
    },
    {
      "buffer": 0,
      "byteLength": 4530560,
      "byteOffset": 14972544,
      "byteStride": 16,
      "name": "floatBufferViews",
      "target": 34962
    }
  ],
  "buffers": [
    {
      "byteLength": 19503104,
      "uri": "scene.bin"
    }
  ],
  "images": [
    {
      "uri": "textures/defaultMat_baseColor.jpeg"
    },
    {
      "uri": "textures/defaultMat_metallicRoughness.png"
    },
    {
      "uri": "textures/defaultMat_normal.jpeg"
    }
  ],
  "materials": [
    {
      "doubleSided": true,
      "emissiveFactor": [
        0,
        0,
        0
      ],
      "name": "defaultMat",
      "normalTexture": {
        "index": 2,
        "scale": 1,
        "texCoord": 0
      },
      "occlusionTexture": {
        "index": 1,
        "strength": 1,
        "texCoord": 0
      },
      "pbrMetallicRoughness": {
        "baseColorFactor": [
          1,
          1,
          1,
          1
        ],
        "baseColorTexture": {
          "index": 0,
          "texCoord": 0
        },
        "metallicFactor": 0,
        "metallicRoughnessTexture": {
          "index": 1,
          "texCoord": 0
        },
        "roughnessFactor": 0.69340701219512191
      }
    },
    {
      "doubleSided": true,
      "emissiveFactor": [
        0,
        0,
        0
      ],
      "name": "defaultMat_0",
      "pbrMetallicRoughness": {
        "baseColorFactor": [
          0.27119792872178344,
          0.27119792872178344,
          0.27119792872178344,
          1
        ],
        "metallicFactor": 0,
        "roughnessFactor": 0.59999999999999998
      }
    }
  ],
  "meshes": [
    {
      "primitives": [
        {
          "attributes": {
            "NORMAL": 1,
            "POSITION": 0,
            "TANGENT": 2,
            "TEXCOORD_0": 3
          },
          "indices": 4,
          "material": 0,
          "mode": 4
        }
      ]
    },
    {
      "primitives": [
        {
          "attributes": {
            "NORMAL": 6,
            "POSITION": 5,
            "TANGENT": 7,
            "TEXCOORD_0": 8
          },
          "indices": 9,
          "material": 0,
          "mode": 4
        }
      ]
    },
    {
      "primitives": [
        {
          "attributes": {
            "NORMAL": 11,
            "POSITION": 10,
            "TANGENT": 12,
            "TEXCOORD_0": 13
          },
          "indices": 14,
          "material": 0,
          "mode": 4
        }
      ]
    },
    {
      "primitives": [
        {
          "attributes": {
            "NORMAL": 16,
            "POSITION": 15,
            "TANGENT": 17,
            "TEXCOORD_0": 18
          },
          "indices": 19,
          "material": 0,
          "mode": 4
        }
      ]
    },
    {
      "primitives": [
        {
          "attributes": {
            "NORMAL": 21,
            "POSITION": 20,
            "TANGENT": 22,
            "TEXCOORD_0": 23
          },
          "indices": 24,
          "material": 0,
          "mode": 4
        }
      ]
    },
    {
      "primitives": [
        {
          "attributes": {
            "NORMAL": 26,
            "POSITION": 25,
            "TANGENT": 27,
            "TEXCOORD_0": 28
          },
          "indices": 29,
          "material": 0,
          "mode": 4
        }
      ]
    },
    {
      "primitives": [
        {
          "attributes": {
            "NORMAL": 31,
            "POSITION": 30,
            "TEXCOORD_0": 32
          },
          "indices": 33,
          "material": 1,
          "mode": 4
        }
      ]
    }
  ],
  "nodes": [
    {
      "children": [
        1
      ],
      "name": "RootNode (gltf orientation matrix)",
      "rotation": [
        -0.70710678118654746,
        -0,
        -0,
        0.70710678118654757
      ]
    },
    {
      "children": [
        2
      ],
      "name": "RootNode (model correction matrix)"
    },
    {
      "children": [
        3
      ],
      "matrix": [
        1,
        0,
        0,
        0,
        0,
        1,
        0,
        0,
        0,
        0,
        1,
        0,
        -261.74948120117188,
        -206.63026428222656,
        -760.0262451171875,
        1
      ],
      "name": "zbrush_concat.osgb.cleaner.gles"
    },
    {
      "children": [
        4,
        11
      ],
      "name": ""
    },
    {
      "children": [
        5,
        6,
        7,
        8,
        9,
        10
      ],
      "name": "/sketchfab-data/processing/0e4dcc6d35834799a8c8e71c26e098cc/preprocess/SubTool-0-11413759.OBJ"
    },
    {
      "mesh": 0,
      "name": ""
    },
    {
      "mesh": 1,
      "name": ""
    },
    {
      "mesh": 2,
      "name": ""
    },
    {
      "mesh": 3,
      "name": ""
    },
    {
      "mesh": 4,
      "name": ""
    },
    {
      "mesh": 5,
      "name": ""
    },
    {
      "children": [
        12
      ],
      "name": "/sketchfab-data/processing/0e4dcc6d35834799a8c8e71c26e098cc/preprocess/SubTool-1-9190314.OBJ"
    },
    {
      "mesh": 6,
      "name": ""
    }
  ],
  "samplers": [
    {
      "magFilter": 9729,
      "minFilter": 9987,
      "wrapS": 10497,
      "wrapT": 10497
    }
  ],
  "scene": 0,
  "scenes": [
    {
      "name": "OSG_Scene",
      "nodes": [
        0
      ]
    }
  ],
  "textures": [
    {
      "sampler": 0,
      "source": 0
    },
    {
      "sampler": 0,
      "source": 1
    },
    {
      "sampler": 0,
      "source": 2
    }
  ]
}

